<svg xmlns="http://www.w3.org/2000/svg" aria-hidden="true" style="width:0;height:0;position:absolute;overflow:hidden"><defs><symbol id="film-icon" viewBox="0 0 32 32"><path stroke="#fff" stroke-linecap="round" stroke-linejoin="round" stroke-width="2" d="M19.82 2.704H4.18C2.976 2.704 2 3.634 2 4.78v14.892c0 1.146.976 2.076 2.18 2.076h15.64c1.204 0 2.18-.93 2.18-2.076V4.78c0-1.146-.976-2.076-2.18-2.076ZM7 2.704v19.044M17 2.704v19.044M2 12.226h20M2 7.465h5m-5 9.522h5m10 0h5m-5-9.522h5"/></symbol><symbol id="icon-arrow-prev" viewBox="0 0 32 32"><path stroke-linecap="round" stroke-linejoin="round" stroke-width="2.667" d="M25.333 16H6.666M16 25.333 6.667 16 16 6.667"/></symbol><symbol id="icon-arrow-next" viewBox="0 0 32 32"><path stroke-linecap="round" stroke-linejoin="round" stroke-width="2.667" d="M6.667 16h18.667M16 25.333 25.333 16 16 6.667"/></symbol><symbol id="icon-close" viewBox="0 0 32 32"><path stroke-width="2.133" d="m8.533 8.533 14.933 14.933m-14.933.001L23.466 8.534"/></symbol><symbol id="icon-search-2" viewBox="0 0 32 32"><path fill="none" stroke="#fff" stroke-linecap="round" stroke-linejoin="round" stroke-width="2.667" d="M14.667 25.333c5.891 0 10.667-4.776 10.667-10.667S20.558 3.999 14.667 3.999 4 8.775 4 14.666s4.776 10.667 10.667 10.667zM28 28.001l-5.8-5.8" style="stroke:var(--color1,#fff)"/></symbol></defs></svg>