<svg xmlns="http://www.w3.org/2000/svg" aria-hidden="true" style="width:0;height:0;position:absolute;overflow:hidden"><defs><symbol id="film-icon" viewBox="0 0 32 32"><path fill="none" stroke="#fff" stroke-linecap="round" stroke-linejoin="round" stroke-width="2.667" d="M26.427 2.667H5.574a2.907 2.907 0 0 0-2.907 2.907v20.853a2.907 2.907 0 0 0 2.907 2.907v0h20.853a2.907 2.907 0 0 0 2.907-2.907v0V5.574a2.907 2.907 0 0 0-2.907-2.907v0zm-17.094 0v26.667M22.667 2.667v26.667M2.667 16h26.667M2.667 9.333h6.667M2.667 22.667h6.667m13.333 0h6.667M22.667 9.333h6.667" style="stroke:var(--color1,#fff)"/></symbol><symbol id="icon-arrow-prev" viewBox="0 0 32 32"><path stroke-linecap="round" stroke-linejoin="round" stroke-width="2.667" d="M25.333 16H6.666M16 25.333 6.667 16 16 6.667"/></symbol><symbol id="icon-arrow-next" viewBox="0 0 32 32"><path stroke-linecap="round" stroke-linejoin="round" stroke-width="2.667" d="M6.667 16h18.667M16 25.333 25.333 16 16 6.667"/></symbol><symbol id="icon-close" viewBox="0 0 32 32"><path stroke-width="2.133" d="m8.533 8.533 14.933 14.933m-14.933.001L23.466 8.534"/></symbol><symbol id="icon-search-2" viewBox="0 0 32 32"><path fill="none" stroke="#fff" stroke-linecap="round" stroke-linejoin="round" stroke-width="2.667" d="M14.667 25.333c5.891 0 10.667-4.776 10.667-10.667S20.558 3.999 14.667 3.999 4 8.775 4 14.666s4.776 10.667 10.667 10.667zM28 28.001l-5.8-5.8" style="stroke:var(--color1,#fff)"/></symbol><symbol id="film-modal-btn" viewBox="0 0 32 32"><path d="m26.667 7.303-1.97-1.97-7.808 7.808-7.808-7.808-1.97 1.97 7.808 7.808-7.808 7.808 1.97 1.97 7.808-7.808 7.808 7.808 1.97-1.97-7.808-7.808 7.808-7.808z"/><symbol id="close-footer-modal" viewBox="0 0 32 32"><path d="M23.734 10.304 22.23 8.8l-5.963 5.962L10.305 8.8l-1.504 1.504 5.962 5.962-5.962 5.963 1.504 1.504 5.962-5.963 5.963 5.963 1.504-1.504-5.963-5.963 5.963-5.962z"/></symbol><symbol id="icon-github" viewBox="0 0 32 32"><path d="M16 5.333C10.109 5.333 5.333 10.109 5.333 16S10.109 26.667 16 26.667 26.667 21.891 26.667 16 21.891 5.333 16 5.333zm0 3.556a7.11 7.11 0 0 1 1.986 13.936c-.12-.112-.234-.272-.229-.476.012-.468 0-1.558 0-1.959 0-.688-.436-1.176-.436-1.176s3.414.038 3.414-3.605c0-1.405-.733-2.137-.733-2.137s.386-1.501-.134-2.137c-.582-.063-1.625.556-2.07.845 0 0-.706-.289-1.879-.289s-1.879.289-1.879.289c-.445-.289-1.488-.908-2.07-.845-.52.636-.134 2.137-.134 2.137s-.735.731-.735 2.137c0 3.643 3.414 3.605 3.414 3.605s-.388.443-.428 1.076c-.228.08-.539.176-.836.176-.716 0-1.26-.696-1.459-1.017-.197-.317-.601-.583-.977-.583-.248 0-.368.124-.368.266s.348.24.576.503c.483.553.474 1.797 2.194 1.797.204 0 .57-.046.862-.086-.002.391-.006.764 0 1.004a.611.611 0 0 1-.196.442 7.115 7.115 0 0 1-4.994-6.791A7.11 7.11 0 0 1 16 8.89z"/></symbol><symbol id="icon-linkedin" viewBox="0 0 32 32"><path d="M16 1.28C7.884 1.28 1.28 7.883 1.28 16S7.884 30.72 16 30.72 30.72 24.117 30.72 16 24.116 1.28 16 1.28zM11.52 22.4H8.96v-9.6h2.56v9.6zm-1.28-11.52a1.28 1.28 0 1 1 0-2.56 1.28 1.28 0 0 1 0 2.56zM23.68 22.4h-2.56v-4.8c0-1.232-1.008-2.24-2.24-2.24s-2.24 1.008-2.24 2.24v4.8h-2.56v-9.6h2.56v1.162a4.16 4.16 0 0 1 7.04 2.998v5.44z"/></symbol></symbol></defs></svg>