<svg xmlns="http://www.w3.org/2000/svg" aria-hidden="true" style="position:absolute;width:0;height:0;overflow:hidden">
  <defs>
  <symbol id="film-icon" viewBox="0 0 32 32">
      <path fill="none" stroke="#fff" stroke-linecap="round" stroke-linejoin="round" stroke-width="2.667" d="M26.427 2.667H5.574a2.907 2.907 0 0 0-2.907 2.907v20.853a2.907 2.907 0 0 0 2.907 2.907v0h20.853a2.907 2.907 0 0 0 2.907-2.907v0V5.574a2.907 2.907 0 0 0-2.907-2.907v0zm-17.094 0v26.667M22.667 2.667v26.667M2.667 16h26.667M2.667 9.333h6.667M2.667 22.667h6.667m13.333 0h6.667M22.667 9.333h6.667" style="stroke:var(--color1, #fff)"/>
    </symbol>
    <symbol id="icon-arrow-prev" viewBox="0 0 32 32">
      <path stroke-linecap="round" stroke-linejoin="round" stroke-width="2.667" d="M25.333 16H6.666M16 25.333 6.667 16 16 6.667"/>
    </symbol>
    <symbol id="icon-arrow-next" viewBox="0 0 32 32">
      <path stroke-linecap="round" stroke-linejoin="round" stroke-width="2.667" d="M6.667 16h18.667M16 25.333 25.333 16 16 6.667"/>
    </symbol>
    <symbol id="icon-close" viewBox="0 0 32 32">
      <path stroke-width="2.133" d="m8.533 8.533 14.933 14.933M8.533 23.467 23.466 8.534"/>
    </symbol>
    <symbol id="icon-search-2" viewBox="0 0 32 32">
      <path fill="none" stroke="#fff" stroke-linecap="round" stroke-linejoin="round" stroke-width="2.667" d="M14.667 25.333c5.891 0 10.667-4.776 10.667-10.667S20.558 3.999 14.667 3.999 4 8.775 4 14.666s4.776 10.667 10.667 10.667zM28 28.001l-5.8-5.8" style="stroke:var(--color1, #fff)"/>
    </symbol>


      <symbol id="film-modal-btn" viewBox="0 0 32 32">
      <path d="m26.667 7.303-1.97-1.97-7.808 7.808-7.808-7.808-1.97 1.97 7.808 7.808-7.808 7.808 1.97 1.97 7.808-7.808 7.808 7.808 1.97-1.97-7.808-7.808 7.808-7.808z"/>

    <symbol id="close-footer-modal" viewBox="0 0 32 32">
      <path d="M23.734 10.304l-1.504-1.504-5.963 5.962-5.962-5.962-1.504 1.504 5.962 5.962-5.962 5.963 1.504 1.504 5.962-5.963 5.963 5.963 1.504-1.504-5.963-5.963 5.963-5.962z"></path>
    </symbol>
    <symbol id="icon-github" viewBox="0 0 32 32">
      <path d="M16 5.333c-5.891 0-10.667 4.776-10.667 10.667s4.776 10.667 10.667 10.667c5.891 0 10.667-4.776 10.667-10.667s-4.776-10.667-10.667-10.667zM16 8.889c3.928 0 7.111 3.184 7.111 7.111 0 3.237-2.165 5.965-5.125 6.825-0.12-0.112-0.234-0.272-0.229-0.476 0.012-0.468 0-1.558 0-1.959 0-0.688-0.436-1.176-0.436-1.176s3.414 0.038 3.414-3.605c0-1.405-0.733-2.137-0.733-2.137s0.386-1.501-0.134-2.137c-0.582-0.063-1.625 0.556-2.070 0.845 0 0-0.706-0.289-1.879-0.289s-1.879 0.289-1.879 0.289c-0.445-0.289-1.488-0.908-2.070-0.845-0.52 0.636-0.134 2.137-0.134 2.137s-0.735 0.731-0.735 2.137c0 3.643 3.414 3.605 3.414 3.605s-0.388 0.443-0.428 1.076c-0.228 0.080-0.539 0.176-0.836 0.176-0.716 0-1.26-0.696-1.459-1.017-0.197-0.317-0.601-0.583-0.977-0.583-0.248 0-0.368 0.124-0.368 0.266s0.348 0.24 0.576 0.503c0.483 0.553 0.474 1.797 2.194 1.797 0.204 0 0.57-0.046 0.862-0.086-0.002 0.391-0.006 0.764 0 1.004 0.005 0.185-0.089 0.332-0.196 0.442-2.893-0.901-4.994-3.601-4.994-6.791 0-3.928 3.184-7.111 7.111-7.111z"></path>
    </symbol>
    <symbol id="icon-linkedin" viewBox="0 0 32 32">
      <path d="M16 1.28c-8.116 0-14.72 6.603-14.72 14.72s6.604 14.72 14.72 14.72 14.72-6.603 14.72-14.72-6.604-14.72-14.72-14.72zM11.52 22.4h-2.56v-9.6h2.56v9.6zM10.24 10.88c-0.707 0-1.28-0.573-1.28-1.28s0.573-1.28 1.28-1.28 1.28 0.573 1.28 1.28c0 0.707-0.573 1.28-1.28 1.28zM23.68 22.4h-2.56v-4.8c0-1.232-1.008-2.24-2.24-2.24s-2.24 1.008-2.24 2.24v4.8h-2.56v-9.6h2.56v1.162c0.748-0.718 1.761-1.162 2.88-1.162 2.298 0 4.16 1.862 4.16 4.16v5.44z"></path>

    </symbol>
  </defs>
</svg>
